<svg xmlns="http://www.w3.org/2000/svg" viewBox="0 0 32.02 32"><defs><style>.cls-1{fill:#161616;}</style></defs><g id="Layer_2" data-name="Layer 2"><g id="Layer_2-2" data-name="Layer 2"><path class="cls-1" d="M16,0A16,16,0,1,0,32,16,16,16,0,0,0,16,0ZM12.61,10.65h5.95A1.31,1.31,0,0,1,19.87,12a1.32,1.32,0,0,1-1.31,1.32H12.61A1.33,1.33,0,0,1,11.29,12,1.31,1.31,0,0,1,12.61,10.65ZM11.29,20.1a1.32,1.32,0,0,1,1.32-1.32h5.95a1.32,1.32,0,0,1,0,2.63H12.61A1.32,1.32,0,0,1,11.29,20.1Zm4.86,9.75h0a1.53,1.53,0,0,1,0-3.05,10.8,10.8,0,0,0,0-21.6,1.53,1.53,0,0,1,0-3.05h0a13.85,13.85,0,0,1,0,27.7Z"/></g></g></svg>